<mxfile host="app.diagrams.net" modified="2022-11-23T09:36:01.682Z" agent="5.0 (Macintosh; Intel Mac OS X 10_15_7) AppleWebKit/537.36 (KHTML, like Gecko) Chrome/107.0.0.0 Safari/537.36 Edg/107.0.1418.42" etag="oUmaYXTISFbkILh1LF9N" version="20.5.3" type="github">
  <diagram id="mp0UFyH3FqtpCRN3-6L2" name="Page-1">
    <mxGraphModel dx="1516" dy="894" grid="1" gridSize="10" guides="1" tooltips="1" connect="1" arrows="1" fold="1" page="1" pageScale="1" pageWidth="850" pageHeight="1100" math="0" shadow="0">
      <root>
        <mxCell id="0" />
        <mxCell id="1" parent="0" />
        <mxCell id="zGb-HXnJVVAAqv_T0aW1-69" value="rg-image-ingest-spoke" style="fontStyle=0;verticalAlign=top;align=center;spacingTop=-2;fillColor=none;rounded=0;whiteSpace=wrap;html=1;strokeColor=#919191;strokeWidth=2;dashed=1;container=1;collapsible=0;expand=0;recursiveResize=0;" parent="1" vertex="1">
          <mxGeometry x="419" y="232" width="1050" height="708" as="geometry" />
        </mxCell>
        <mxCell id="Y3fSY0z_PWKwTvdtHTbV-15" value="" style="group" parent="zGb-HXnJVVAAqv_T0aW1-69" vertex="1" connectable="0">
          <mxGeometry x="271" y="149" width="68" height="60" as="geometry" />
        </mxCell>
        <mxCell id="Y3fSY0z_PWKwTvdtHTbV-11" value="Scavenger&lt;br&gt;(TimerTrigger)" style="aspect=fixed;html=1;points=[];align=center;image;fontSize=12;image=img/lib/azure2/iot/Function_Apps.svg;" parent="Y3fSY0z_PWKwTvdtHTbV-15" vertex="1">
          <mxGeometry width="68" height="60" as="geometry" />
        </mxCell>
        <mxCell id="Y3fSY0z_PWKwTvdtHTbV-12" value="" style="shadow=0;dashed=0;html=1;strokeColor=none;fillColor=#4495D1;labelPosition=center;verticalLabelPosition=bottom;verticalAlign=top;align=center;outlineConnect=0;shape=mxgraph.veeam.time;" parent="Y3fSY0z_PWKwTvdtHTbV-15" vertex="1">
          <mxGeometry x="8" y="40" width="22" height="22" as="geometry" />
        </mxCell>
        <mxCell id="93GdrIorIVijSSyAPYrD-18" value="8" style="ellipse;whiteSpace=wrap;html=1;aspect=fixed;strokeWidth=2;fontFamily=Tahoma;spacingBottom=4;spacingRight=2;strokeColor=#d3d3d3;" parent="Y3fSY0z_PWKwTvdtHTbV-15" vertex="1">
          <mxGeometry x="10" width="20" height="20" as="geometry" />
        </mxCell>
        <mxCell id="JnfWXdq7wDuVDZa3z_bH-1" style="edgeStyle=orthogonalEdgeStyle;rounded=0;orthogonalLoop=1;jettySize=auto;html=1;" edge="1" parent="zGb-HXnJVVAAqv_T0aW1-69" source="93GdrIorIVijSSyAPYrD-1" target="93GdrIorIVijSSyAPYrD-13">
          <mxGeometry relative="1" as="geometry" />
        </mxCell>
        <mxCell id="93GdrIorIVijSSyAPYrD-1" value="Tokenizer&lt;br&gt;(Activity)" style="aspect=fixed;html=1;points=[];align=center;image;fontSize=12;image=img/lib/azure2/compute/Function_Apps.svg;" parent="zGb-HXnJVVAAqv_T0aW1-69" vertex="1">
          <mxGeometry x="505" y="258" width="68" height="60" as="geometry" />
        </mxCell>
        <mxCell id="zGb-HXnJVVAAqv_T0aW1-70" value="rg-image-ingest" style="sketch=0;aspect=fixed;html=1;points=[];align=center;image;fontSize=12;image=img/lib/mscae/ResourceGroup.svg;" parent="zGb-HXnJVVAAqv_T0aW1-69" vertex="1">
          <mxGeometry x="16" y="10" width="50" height="40" as="geometry" />
        </mxCell>
        <mxCell id="zGb-HXnJVVAAqv_T0aW1-64" value="10.11.0.0/24" style="verticalLabelPosition=bottom;html=1;verticalAlign=top;align=center;strokeColor=none;fillColor=#00BEF2;shape=mxgraph.azure.virtual_network;pointerEvents=1;labelBackgroundColor=none;" parent="zGb-HXnJVVAAqv_T0aW1-69" vertex="1">
          <mxGeometry x="990" y="10" width="30" height="20" as="geometry" />
        </mxCell>
        <mxCell id="EbMunbrASVV2r2uE1-7z-3" value="stimagesftp&lt;br&gt;(Image Storage)" style="aspect=fixed;html=1;points=[];align=center;image;fontSize=12;image=img/lib/azure2/storage/Storage_Accounts.svg;" parent="zGb-HXnJVVAAqv_T0aW1-69" vertex="1">
          <mxGeometry x="82" y="93" width="65" height="52" as="geometry" />
        </mxCell>
        <mxCell id="zGb-HXnJVVAAqv_T0aW1-122" value="Images" style="edgeStyle=orthogonalEdgeStyle;rounded=0;orthogonalLoop=1;jettySize=auto;html=1;endArrow=none;endFill=0;fillColor=#dae8fc;strokeColor=#6c8ebf;dashed=1;dashPattern=1 1;startArrow=none;" parent="zGb-HXnJVVAAqv_T0aW1-69" source="EbMunbrASVV2r2uE1-7z-3" target="Y3fSY0z_PWKwTvdtHTbV-13" edge="1">
          <mxGeometry relative="1" as="geometry">
            <Array as="points">
              <mxPoint x="191" y="119" />
              <mxPoint x="191" y="178" />
              <mxPoint x="211" y="178" />
              <mxPoint x="211" y="354" />
            </Array>
            <mxPoint x="291.6233299999999" y="255.45800000000008" as="targetPoint" />
          </mxGeometry>
        </mxCell>
        <mxCell id="zGb-HXnJVVAAqv_T0aW1-45" value="BlobTriggerSource.EventGrid" style="aspect=fixed;html=1;points=[];align=center;image;fontSize=12;image=img/lib/azure2/integration/Event_Grid_Topics.svg;" parent="zGb-HXnJVVAAqv_T0aW1-69" vertex="1">
          <mxGeometry x="51.99999999999997" y="194" width="42.43" height="38" as="geometry" />
        </mxCell>
        <mxCell id="zGb-HXnJVVAAqv_T0aW1-101" style="edgeStyle=orthogonalEdgeStyle;rounded=0;orthogonalLoop=1;jettySize=auto;html=1;dashed=1;endArrow=none;endFill=0;" parent="zGb-HXnJVVAAqv_T0aW1-69" source="zGb-HXnJVVAAqv_T0aW1-79" target="zGb-HXnJVVAAqv_T0aW1-100" edge="1">
          <mxGeometry relative="1" as="geometry" />
        </mxCell>
        <mxCell id="zGb-HXnJVVAAqv_T0aW1-107" value="Batch saved succesfuly" style="edgeStyle=orthogonalEdgeStyle;rounded=0;orthogonalLoop=1;jettySize=auto;html=1;dashed=1;endArrow=none;endFill=0;fillColor=#fff2cc;strokeColor=#d6b656;dashPattern=1 1;" parent="zGb-HXnJVVAAqv_T0aW1-69" source="zGb-HXnJVVAAqv_T0aW1-79" target="zGb-HXnJVVAAqv_T0aW1-63" edge="1">
          <mxGeometry relative="1" as="geometry" />
        </mxCell>
        <mxCell id="zGb-HXnJVVAAqv_T0aW1-79" value="Zip Storage&lt;br&gt;(stimagesoutput)" style="aspect=fixed;html=1;points=[];align=center;image;fontSize=12;image=img/lib/azure2/storage/Storage_Accounts.svg;" parent="zGb-HXnJVVAAqv_T0aW1-69" vertex="1">
          <mxGeometry x="848.5" y="383.25" width="65" height="52" as="geometry" />
        </mxCell>
        <mxCell id="zGb-HXnJVVAAqv_T0aW1-63" value="ZipListener&lt;br&gt;(BlobTrigger)" style="aspect=fixed;html=1;points=[];align=center;image;fontSize=12;image=img/lib/azure2/iot/Function_Apps.svg;" parent="zGb-HXnJVVAAqv_T0aW1-69" vertex="1">
          <mxGeometry x="847" y="89" width="68" height="60" as="geometry" />
        </mxCell>
        <mxCell id="zGb-HXnJVVAAqv_T0aW1-85" value="&lt;font style=&quot;background-color: rgb(255, 255, 255);&quot; color=&quot;#003366&quot;&gt;&lt;b&gt;&lt;i&gt;Pending&lt;/i&gt;&lt;/b&gt;&lt;/font&gt;" style="edgeStyle=orthogonalEdgeStyle;rounded=0;orthogonalLoop=1;jettySize=auto;html=1;endArrow=classic;endFill=1;fillColor=#dae8fc;strokeColor=#6c8ebf;exitX=0.679;exitY=-0.022;exitDx=0;exitDy=0;exitPerimeter=0;dashed=1;entryX=0;entryY=0.25;entryDx=0;entryDy=0;" parent="zGb-HXnJVVAAqv_T0aW1-69" source="zGb-HXnJVVAAqv_T0aW1-42" target="zGb-HXnJVVAAqv_T0aW1-150" edge="1">
          <mxGeometry relative="1" as="geometry">
            <mxPoint x="114.5" y="539" as="targetPoint" />
            <Array as="points">
              <mxPoint x="85" y="378" />
              <mxPoint x="171" y="378" />
              <mxPoint x="171" y="120" />
            </Array>
          </mxGeometry>
        </mxCell>
        <mxCell id="zGb-HXnJVVAAqv_T0aW1-42" value="BlobListener&lt;br&gt;(Blob.EventGrid Trigger)" style="aspect=fixed;html=1;points=[];align=center;image;fontSize=12;image=img/lib/azure2/iot/Function_Apps.svg;" parent="zGb-HXnJVVAAqv_T0aW1-69" vertex="1">
          <mxGeometry x="39.214999999999975" y="413.75" width="68" height="60" as="geometry" />
        </mxCell>
        <mxCell id="zGb-HXnJVVAAqv_T0aW1-126" style="edgeStyle=orthogonalEdgeStyle;rounded=0;orthogonalLoop=1;jettySize=auto;html=1;entryX=0;entryY=0.5;entryDx=0;entryDy=0;endArrow=none;endFill=0;fillColor=#008a00;strokeColor=#005700;exitX=1.008;exitY=0.558;exitDx=0;exitDy=0;exitPerimeter=0;strokeWidth=2;" parent="zGb-HXnJVVAAqv_T0aW1-69" source="RCE_GgjakJLuHdIpDTJi-5" target="zGb-HXnJVVAAqv_T0aW1-125" edge="1">
          <mxGeometry relative="1" as="geometry">
            <mxPoint x="671" y="517.25" as="targetPoint" />
          </mxGeometry>
        </mxCell>
        <mxCell id="zGb-HXnJVVAAqv_T0aW1-89" value="Orchestrate" style="edgeStyle=orthogonalEdgeStyle;rounded=0;orthogonalLoop=1;jettySize=auto;html=1;entryX=0.003;entryY=0.474;entryDx=0;entryDy=0;entryPerimeter=0;endArrow=classic;endFill=1;fillColor=#008a00;strokeColor=#005700;exitX=0.974;exitY=0.516;exitDx=0;exitDy=0;exitPerimeter=0;strokeWidth=2;" parent="zGb-HXnJVVAAqv_T0aW1-69" source="zGb-HXnJVVAAqv_T0aW1-42" target="RCE_GgjakJLuHdIpDTJi-2" edge="1">
          <mxGeometry relative="1" as="geometry">
            <mxPoint x="214" y="533" as="sourcePoint" />
          </mxGeometry>
        </mxCell>
        <mxCell id="zGb-HXnJVVAAqv_T0aW1-100" value="Azure Storage Repication" style="aspect=fixed;html=1;points=[];align=center;image;fontSize=12;image=img/lib/azure2/storage/Storage_Sync_Services.svg;rounded=1;glass=0;dashed=1;sketch=0;gradientColor=none;" parent="zGb-HXnJVVAAqv_T0aW1-69" vertex="1">
          <mxGeometry x="855.2" y="555" width="51.6" height="43" as="geometry" />
        </mxCell>
        <mxCell id="zGb-HXnJVVAAqv_T0aW1-124" style="edgeStyle=orthogonalEdgeStyle;rounded=0;orthogonalLoop=1;jettySize=auto;html=1;entryX=1;entryY=0.5;entryDx=0;entryDy=0;entryPerimeter=0;endArrow=classic;endFill=1;fillColor=#f8cecc;strokeColor=#b85450;" parent="zGb-HXnJVVAAqv_T0aW1-69" source="zGb-HXnJVVAAqv_T0aW1-109" target="EbMunbrASVV2r2uE1-7z-3" edge="1">
          <mxGeometry relative="1" as="geometry" />
        </mxCell>
        <mxCell id="zGb-HXnJVVAAqv_T0aW1-109" value="Delete source files" style="shape=image;html=1;verticalAlign=top;verticalLabelPosition=bottom;labelBackgroundColor=#ffffff;imageAspect=0;aspect=fixed;image=https://cdn1.iconfinder.com/data/icons/iconoir-vol-3/24/multiple-pages-delete-128.png;rounded=1;glass=0;dashed=1;sketch=0;gradientColor=none;" parent="zGb-HXnJVVAAqv_T0aW1-69" vertex="1">
          <mxGeometry x="615" y="103" width="33" height="33" as="geometry" />
        </mxCell>
        <mxCell id="zGb-HXnJVVAAqv_T0aW1-110" value="" style="edgeStyle=orthogonalEdgeStyle;rounded=0;orthogonalLoop=1;jettySize=auto;html=1;endArrow=none;fillColor=#f8cecc;strokeColor=#b85450;" parent="zGb-HXnJVVAAqv_T0aW1-69" source="zGb-HXnJVVAAqv_T0aW1-63" target="zGb-HXnJVVAAqv_T0aW1-109" edge="1">
          <mxGeometry relative="1" as="geometry">
            <mxPoint x="682.5" y="431" as="targetPoint" />
            <mxPoint x="1453.5" y="385" as="sourcePoint" />
            <Array as="points" />
          </mxGeometry>
        </mxCell>
        <mxCell id="Y3fSY0z_PWKwTvdtHTbV-9" style="edgeStyle=orthogonalEdgeStyle;rounded=0;orthogonalLoop=1;jettySize=auto;html=1;entryX=-0.002;entryY=0.445;entryDx=0;entryDy=0;entryPerimeter=0;strokeWidth=2;fillColor=#008a00;strokeColor=#005700;" parent="zGb-HXnJVVAAqv_T0aW1-69" source="zGb-HXnJVVAAqv_T0aW1-125" target="zGb-HXnJVVAAqv_T0aW1-79" edge="1">
          <mxGeometry relative="1" as="geometry" />
        </mxCell>
        <mxCell id="zGb-HXnJVVAAqv_T0aW1-125" value="Store zip" style="shape=image;html=1;verticalAlign=top;verticalLabelPosition=bottom;labelBackgroundColor=#ffffff;imageAspect=0;aspect=fixed;image=https://cdn4.iconfinder.com/data/icons/file-extension-names-vol-5-1/512/2-128.png;rounded=1;glass=0;dashed=1;sketch=0;gradientColor=none;" parent="zGb-HXnJVVAAqv_T0aW1-69" vertex="1">
          <mxGeometry x="645" y="552.75" width="37.25" height="37.25" as="geometry" />
        </mxCell>
        <mxCell id="zGb-HXnJVVAAqv_T0aW1-148" value="" style="group" parent="zGb-HXnJVVAAqv_T0aW1-69" vertex="1" connectable="0">
          <mxGeometry x="148.42999999999995" y="87" width="60" height="55" as="geometry" />
        </mxCell>
        <mxCell id="zGb-HXnJVVAAqv_T0aW1-149" value="" style="ellipse;html=1;shape=endState;fillColor=#000000;strokeColor=#ff0000;rounded=1;glass=0;dashed=1;sketch=0;" parent="zGb-HXnJVVAAqv_T0aW1-148" vertex="1">
          <mxGeometry x="15" width="30" height="30" as="geometry" />
        </mxCell>
        <mxCell id="zGb-HXnJVVAAqv_T0aW1-150" value="End" style="text;html=1;strokeColor=none;fillColor=none;align=center;verticalAlign=middle;whiteSpace=wrap;rounded=0;glass=0;dashed=1;sketch=0;" parent="zGb-HXnJVVAAqv_T0aW1-148" vertex="1">
          <mxGeometry y="25" width="60" height="30" as="geometry" />
        </mxCell>
        <mxCell id="zGb-HXnJVVAAqv_T0aW1-156" value="" style="aspect=fixed;html=1;points=[];align=center;image;fontSize=12;image=img/lib/azure2/networking/Private_Endpoint.svg;rounded=1;glass=0;dashed=1;sketch=0;gradientColor=none;" parent="zGb-HXnJVVAAqv_T0aW1-69" vertex="1">
          <mxGeometry x="831" y="363" width="33.82" height="31" as="geometry" />
        </mxCell>
        <mxCell id="zGb-HXnJVVAAqv_T0aW1-157" value="" style="aspect=fixed;html=1;points=[];align=center;image;fontSize=12;image=img/lib/azure2/networking/Private_Endpoint.svg;rounded=1;glass=0;dashed=1;sketch=0;gradientColor=none;" parent="zGb-HXnJVVAAqv_T0aW1-69" vertex="1">
          <mxGeometry x="66" y="76" width="33.82" height="31" as="geometry" />
        </mxCell>
        <mxCell id="Y3fSY0z_PWKwTvdtHTbV-8" style="edgeStyle=orthogonalEdgeStyle;rounded=0;orthogonalLoop=1;jettySize=auto;html=1;entryX=0.5;entryY=0.071;entryDx=0;entryDy=0;entryPerimeter=0;strokeWidth=2;fillColor=#008a00;strokeColor=#005700;" parent="zGb-HXnJVVAAqv_T0aW1-69" source="gfkck-QSRBC7-aFhQZBp-1" target="zGb-HXnJVVAAqv_T0aW1-42" edge="1">
          <mxGeometry relative="1" as="geometry" />
        </mxCell>
        <mxCell id="gfkck-QSRBC7-aFhQZBp-1" value="Image Metadata" style="aspect=fixed;html=1;points=[];align=center;image;fontSize=12;image=img/lib/azure2/general/Files.svg;" parent="zGb-HXnJVVAAqv_T0aW1-69" vertex="1">
          <mxGeometry x="54.01499999999997" y="297" width="38.4" height="42" as="geometry" />
        </mxCell>
        <mxCell id="RCE_GgjakJLuHdIpDTJi-2" value="Orchestrator&lt;br&gt;(Orchestration)" style="aspect=fixed;html=1;points=[];align=center;image;fontSize=12;image=img/lib/azure2/compute/Function_Apps.svg;" parent="zGb-HXnJVVAAqv_T0aW1-69" vertex="1">
          <mxGeometry x="244.5" y="416" width="68" height="60" as="geometry" />
        </mxCell>
        <mxCell id="RCE_GgjakJLuHdIpDTJi-5" value="3. Zipper&lt;br&gt;(Activity)" style="aspect=fixed;html=1;points=[];align=center;image;fontSize=12;image=img/lib/azure2/compute/Function_Apps.svg;" parent="zGb-HXnJVVAAqv_T0aW1-69" vertex="1">
          <mxGeometry x="505" y="580" width="68" height="60" as="geometry" />
        </mxCell>
        <mxCell id="RCE_GgjakJLuHdIpDTJi-3" value="1. Collector&lt;br&gt;(Activity)" style="aspect=fixed;html=1;points=[];align=center;image;fontSize=12;image=img/lib/azure2/compute/Function_Apps.svg;" parent="zGb-HXnJVVAAqv_T0aW1-69" vertex="1">
          <mxGeometry x="505" y="419" width="68" height="60" as="geometry" />
        </mxCell>
        <mxCell id="RCE_GgjakJLuHdIpDTJi-6" value="Tag Blobs" style="edgeStyle=orthogonalEdgeStyle;rounded=0;orthogonalLoop=1;jettySize=auto;html=1;entryX=0.491;entryY=-0.05;entryDx=0;entryDy=0;entryPerimeter=0;endArrow=classic;endFill=1;fillColor=#dae8fc;strokeColor=#6c8ebf;dashed=1;dashPattern=1 1;" parent="zGb-HXnJVVAAqv_T0aW1-69" source="EbMunbrASVV2r2uE1-7z-3" target="RCE_GgjakJLuHdIpDTJi-3" edge="1">
          <mxGeometry relative="1" as="geometry">
            <Array as="points">
              <mxPoint x="201" y="119" />
              <mxPoint x="201" y="168" />
              <mxPoint x="221" y="168" />
              <mxPoint x="221" y="328" />
              <mxPoint x="513" y="328" />
            </Array>
            <mxPoint x="533.5" y="399" as="sourcePoint" />
            <mxPoint x="1174.99982" y="455.9960000000001" as="targetPoint" />
          </mxGeometry>
        </mxCell>
        <mxCell id="RCE_GgjakJLuHdIpDTJi-14" value="1" style="ellipse;whiteSpace=wrap;html=1;aspect=fixed;strokeWidth=2;fontFamily=Tahoma;spacingBottom=4;spacingRight=2;strokeColor=#d3d3d3;fontColor=#003366;" parent="zGb-HXnJVVAAqv_T0aW1-69" vertex="1">
          <mxGeometry x="44" y="419.5" width="20" height="20" as="geometry" />
        </mxCell>
        <mxCell id="RCE_GgjakJLuHdIpDTJi-22" value="3" style="edgeStyle=orthogonalEdgeStyle;rounded=0;orthogonalLoop=1;jettySize=auto;html=1;entryX=-0.011;entryY=0.476;entryDx=0;entryDy=0;entryPerimeter=0;endArrow=classic;endFill=1;fillColor=#008a00;strokeColor=#005700;exitX=1.025;exitY=0.759;exitDx=0;exitDy=0;exitPerimeter=0;strokeWidth=2;" parent="zGb-HXnJVVAAqv_T0aW1-69" source="RCE_GgjakJLuHdIpDTJi-2" target="RCE_GgjakJLuHdIpDTJi-5" edge="1">
          <mxGeometry relative="1" as="geometry">
            <mxPoint x="-279" y="671.54" as="sourcePoint" />
            <mxPoint x="-140.24800000000005" y="604" as="targetPoint" />
          </mxGeometry>
        </mxCell>
        <mxCell id="Y3fSY0z_PWKwTvdtHTbV-1" value="2" style="ellipse;whiteSpace=wrap;html=1;aspect=fixed;strokeWidth=2;fontFamily=Tahoma;spacingBottom=4;spacingRight=2;strokeColor=#d3d3d3;" parent="zGb-HXnJVVAAqv_T0aW1-69" vertex="1">
          <mxGeometry x="250.5" y="419" width="20" height="20" as="geometry" />
        </mxCell>
        <mxCell id="Y3fSY0z_PWKwTvdtHTbV-3" value="2" style="edgeStyle=orthogonalEdgeStyle;rounded=0;orthogonalLoop=1;jettySize=auto;html=1;entryX=-0.012;entryY=0.485;entryDx=0;entryDy=0;entryPerimeter=0;endArrow=classic;endFill=1;fillColor=#008a00;strokeColor=#005700;exitX=0.981;exitY=0.468;exitDx=0;exitDy=0;exitPerimeter=0;strokeWidth=2;" parent="zGb-HXnJVVAAqv_T0aW1-69" source="RCE_GgjakJLuHdIpDTJi-2" target="RCE_GgjakJLuHdIpDTJi-3" edge="1">
          <mxGeometry relative="1" as="geometry">
            <mxPoint x="-319.00199999999995" y="685.98" as="sourcePoint" />
            <mxPoint x="-152.11400000000003" y="584.5999999999999" as="targetPoint" />
            <Array as="points">
              <mxPoint x="311" y="448" />
            </Array>
          </mxGeometry>
        </mxCell>
        <mxCell id="Y3fSY0z_PWKwTvdtHTbV-5" style="edgeStyle=orthogonalEdgeStyle;rounded=0;orthogonalLoop=1;jettySize=auto;html=1;endArrow=none;endFill=0;entryX=0.427;entryY=-0.071;entryDx=0;entryDy=0;entryPerimeter=0;fillColor=#008a00;strokeColor=#005700;strokeWidth=2;exitX=0.481;exitY=0.974;exitDx=0;exitDy=0;exitPerimeter=0;" parent="zGb-HXnJVVAAqv_T0aW1-69" source="zGb-HXnJVVAAqv_T0aW1-45" target="gfkck-QSRBC7-aFhQZBp-1" edge="1">
          <mxGeometry relative="1" as="geometry">
            <mxPoint x="132" y="188" as="sourcePoint" />
            <mxPoint x="117.42421000000013" y="221.8979999999999" as="targetPoint" />
            <Array as="points">
              <mxPoint x="70" y="231" />
            </Array>
          </mxGeometry>
        </mxCell>
        <mxCell id="Y3fSY0z_PWKwTvdtHTbV-16" style="edgeStyle=orthogonalEdgeStyle;rounded=0;orthogonalLoop=1;jettySize=auto;html=1;dashed=1;fontColor=#003366;startArrow=none;startFill=0;endArrow=classic;endFill=1;strokeWidth=1;dashPattern=1 1;fillColor=#dae8fc;strokeColor=#6c8ebf;" parent="zGb-HXnJVVAAqv_T0aW1-69" source="Y3fSY0z_PWKwTvdtHTbV-13" target="RCE_GgjakJLuHdIpDTJi-5" edge="1">
          <mxGeometry relative="1" as="geometry">
            <Array as="points">
              <mxPoint x="421" y="354" />
              <mxPoint x="421" y="528" />
              <mxPoint x="512" y="528" />
            </Array>
          </mxGeometry>
        </mxCell>
        <mxCell id="Y3fSY0z_PWKwTvdtHTbV-13" value="Images" style="shape=image;html=1;verticalAlign=top;verticalLabelPosition=bottom;labelBackgroundColor=#ffffff;imageAspect=0;aspect=fixed;image=https://cdn4.iconfinder.com/data/icons/ionicons/512/icon-images-128.png" parent="zGb-HXnJVVAAqv_T0aW1-69" vertex="1">
          <mxGeometry x="320.5" y="331" width="45" height="45" as="geometry" />
        </mxCell>
        <mxCell id="Y3fSY0z_PWKwTvdtHTbV-18" value="6" style="ellipse;whiteSpace=wrap;html=1;aspect=fixed;strokeWidth=2;fontFamily=Tahoma;spacingBottom=4;spacingRight=2;strokeColor=#d3d3d3;fontColor=#003366;" parent="zGb-HXnJVVAAqv_T0aW1-69" vertex="1">
          <mxGeometry x="515" y="578" width="20" height="20" as="geometry" />
        </mxCell>
        <mxCell id="93GdrIorIVijSSyAPYrD-4" value="1" style="edgeStyle=orthogonalEdgeStyle;rounded=0;orthogonalLoop=1;jettySize=auto;html=1;entryX=0;entryY=0.5;entryDx=0;entryDy=0;entryPerimeter=0;endArrow=classic;endFill=1;fillColor=#008a00;strokeColor=#005700;exitX=1.037;exitY=0.267;exitDx=0;exitDy=0;exitPerimeter=0;strokeWidth=2;" parent="zGb-HXnJVVAAqv_T0aW1-69" source="RCE_GgjakJLuHdIpDTJi-2" target="93GdrIorIVijSSyAPYrD-1" edge="1">
          <mxGeometry relative="1" as="geometry">
            <mxPoint x="301" y="339.03999999999996" as="sourcePoint" />
            <mxPoint x="464.0519999999999" y="486.05999999999995" as="targetPoint" />
          </mxGeometry>
        </mxCell>
        <mxCell id="93GdrIorIVijSSyAPYrD-9" value="" style="edgeStyle=orthogonalEdgeStyle;rounded=0;orthogonalLoop=1;jettySize=auto;html=1;endArrow=classic;endFill=1;fillColor=#008a00;strokeColor=#005700;exitX=-0.054;exitY=0.52;exitDx=0;exitDy=0;exitPerimeter=0;strokeWidth=2;entryX=0;entryY=0.75;entryDx=0;entryDy=0;" parent="zGb-HXnJVVAAqv_T0aW1-69" source="Y3fSY0z_PWKwTvdtHTbV-11" target="zGb-HXnJVVAAqv_T0aW1-150" edge="1">
          <mxGeometry relative="1" as="geometry">
            <mxPoint x="338.9960000000001" y="233.01999999999998" as="sourcePoint" />
            <mxPoint x="528.98" y="89" as="targetPoint" />
            <Array as="points">
              <mxPoint x="171" y="180" />
              <mxPoint x="171" y="135" />
            </Array>
          </mxGeometry>
        </mxCell>
        <mxCell id="RCE_GgjakJLuHdIpDTJi-26" value="3" style="ellipse;whiteSpace=wrap;html=1;aspect=fixed;strokeWidth=2;fontFamily=Tahoma;spacingBottom=4;spacingRight=2;strokeColor=#d3d3d3;fontColor=#003366;" parent="zGb-HXnJVVAAqv_T0aW1-69" vertex="1">
          <mxGeometry x="510" y="262" width="20" height="20" as="geometry" />
        </mxCell>
        <mxCell id="93GdrIorIVijSSyAPYrD-12" value="5" style="ellipse;whiteSpace=wrap;html=1;aspect=fixed;strokeWidth=2;fontFamily=Tahoma;spacingBottom=4;spacingRight=2;strokeColor=#d3d3d3;" parent="zGb-HXnJVVAAqv_T0aW1-69" vertex="1">
          <mxGeometry x="510" y="415.25" width="20" height="20" as="geometry" />
        </mxCell>
        <mxCell id="93GdrIorIVijSSyAPYrD-13" value="DurableSasToken&lt;br&gt;(Entity)" style="aspect=fixed;html=1;points=[];align=center;image;fontSize=12;image=img/lib/azure2/compute/Function_Apps.svg;" parent="zGb-HXnJVVAAqv_T0aW1-69" vertex="1">
          <mxGeometry x="628" y="258" width="68" height="60" as="geometry" />
        </mxCell>
        <mxCell id="93GdrIorIVijSSyAPYrD-14" value="" style="aspect=fixed;html=1;points=[];align=center;image;fontSize=12;image=img/lib/azure2/general/Cache.svg;" parent="zGb-HXnJVVAAqv_T0aW1-69" vertex="1">
          <mxGeometry x="634" y="291" width="27" height="27" as="geometry" />
        </mxCell>
        <mxCell id="Y3fSY0z_PWKwTvdtHTbV-2" value="4" style="ellipse;whiteSpace=wrap;html=1;aspect=fixed;strokeWidth=2;fontFamily=Tahoma;spacingBottom=4;spacingRight=2;strokeColor=#d3d3d3;" parent="zGb-HXnJVVAAqv_T0aW1-69" vertex="1">
          <mxGeometry x="634" y="262" width="20" height="20" as="geometry" />
        </mxCell>
        <mxCell id="93GdrIorIVijSSyAPYrD-17" value="7" style="ellipse;whiteSpace=wrap;html=1;aspect=fixed;strokeWidth=2;fontFamily=Tahoma;spacingBottom=4;spacingRight=2;strokeColor=#d3d3d3;" parent="zGb-HXnJVVAAqv_T0aW1-69" vertex="1">
          <mxGeometry x="857.0000000000001" y="84" width="20" height="20" as="geometry" />
        </mxCell>
        <mxCell id="EbMunbrASVV2r2uE1-7z-11" value="&lt;h1&gt;&lt;span style=&quot;background-color: initial; font-size: 24px;&quot;&gt;Operation Orchestration&lt;/span&gt;&lt;/h1&gt;&lt;h1&gt;&lt;span style=&quot;background-color: initial;&quot;&gt;&lt;font style=&quot;font-size: 18px;&quot;&gt;Azure Durable Functions (Serverless)&lt;/font&gt;&lt;/span&gt;&lt;br&gt;&lt;/h1&gt;" style="text;html=1;strokeColor=none;fillColor=none;spacing=5;spacingTop=-20;whiteSpace=wrap;overflow=hidden;rounded=0;" parent="1" vertex="1">
          <mxGeometry x="10" y="29" width="350" height="92" as="geometry" />
        </mxCell>
        <mxCell id="zGb-HXnJVVAAqv_T0aW1-130" style="edgeStyle=orthogonalEdgeStyle;rounded=0;orthogonalLoop=1;jettySize=auto;html=1;endArrow=none;endFill=0;fillColor=#e1d5e7;strokeColor=#9673a6;dashed=1;" parent="1" source="EbMunbrASVV2r2uE1-7z-14" target="zGb-HXnJVVAAqv_T0aW1-39" edge="1">
          <mxGeometry relative="1" as="geometry" />
        </mxCell>
        <mxCell id="EbMunbrASVV2r2uE1-7z-14" value="target:&amp;nbsp;50000 images/min" style="text;html=1;strokeColor=#d6b656;fillColor=#fff2cc;align=center;verticalAlign=middle;whiteSpace=wrap;rounded=1;dashed=1;sketch=0;glass=0;spacing=1;" parent="1" vertex="1">
          <mxGeometry x="35.05" y="451" width="220" height="80" as="geometry" />
        </mxCell>
        <mxCell id="zGb-HXnJVVAAqv_T0aW1-38" value="Upload Images (FTP)" style="edgeStyle=orthogonalEdgeStyle;rounded=0;orthogonalLoop=1;jettySize=auto;html=1;entryX=-0.015;entryY=0.5;entryDx=0;entryDy=0;entryPerimeter=0;fillColor=#dae8fc;strokeColor=#6c8ebf;" parent="1" source="zGb-HXnJVVAAqv_T0aW1-39" target="EbMunbrASVV2r2uE1-7z-3" edge="1">
          <mxGeometry relative="1" as="geometry">
            <mxPoint x="489" y="311" as="targetPoint" />
            <mxPoint x="64.05000000000018" y="407.29999999999995" as="sourcePoint" />
          </mxGeometry>
        </mxCell>
        <mxCell id="zGb-HXnJVVAAqv_T0aW1-39" value="FTP Server" style="sketch=0;outlineConnect=0;fontColor=#232F3E;gradientColor=none;fillColor=#067F68;strokeColor=none;dashed=0;verticalLabelPosition=bottom;verticalAlign=top;align=center;html=1;fontSize=12;fontStyle=0;aspect=fixed;shape=mxgraph.aws4.transfer_for_ftp_resource;" parent="1" vertex="1">
          <mxGeometry x="200" y="348" width="55.05" height="56.5" as="geometry" />
        </mxCell>
        <mxCell id="zGb-HXnJVVAAqv_T0aW1-76" value="External Azure Blob" style="aspect=fixed;html=1;points=[];align=center;image;fontSize=12;image=img/lib/azure2/storage/Storage_Accounts.svg;" parent="1" vertex="1">
          <mxGeometry x="1209" y="982" width="65" height="52" as="geometry" />
        </mxCell>
        <mxCell id="zGb-HXnJVVAAqv_T0aW1-77" value="External Azure Blob" style="aspect=fixed;html=1;points=[];align=center;image;fontSize=12;image=img/lib/azure2/storage/Storage_Accounts.svg;" parent="1" vertex="1">
          <mxGeometry x="1329" y="982" width="65" height="52" as="geometry" />
        </mxCell>
        <mxCell id="zGb-HXnJVVAAqv_T0aW1-102" value="Replica" style="edgeStyle=orthogonalEdgeStyle;rounded=0;orthogonalLoop=1;jettySize=auto;html=1;endArrow=classic;endFill=1;fillColor=#dae8fc;strokeColor=#6c8ebf;" parent="1" source="zGb-HXnJVVAAqv_T0aW1-100" target="zGb-HXnJVVAAqv_T0aW1-77" edge="1">
          <mxGeometry relative="1" as="geometry" />
        </mxCell>
        <mxCell id="zGb-HXnJVVAAqv_T0aW1-104" value="rg-image-ingest-hub" style="fontStyle=0;verticalAlign=top;align=center;spacingTop=-2;fillColor=none;rounded=0;whiteSpace=wrap;html=1;strokeColor=#919191;strokeWidth=2;dashed=1;container=1;collapsible=0;expand=0;recursiveResize=0;glass=0;sketch=0;" parent="1" vertex="1">
          <mxGeometry x="419" y="65" width="1050" height="139" as="geometry" />
        </mxCell>
        <mxCell id="zGb-HXnJVVAAqv_T0aW1-105" value="rg-image-ingest-hub" style="sketch=0;aspect=fixed;html=1;points=[];align=center;image;fontSize=12;image=img/lib/mscae/ResourceGroup.svg;" parent="zGb-HXnJVVAAqv_T0aW1-104" vertex="1">
          <mxGeometry x="16" y="10" width="50" height="40" as="geometry" />
        </mxCell>
        <mxCell id="zGb-HXnJVVAAqv_T0aW1-83" value="Configuration Vault" style="aspect=fixed;html=1;points=[];align=center;image;fontSize=12;image=img/lib/azure2/security/Key_Vaults.svg;rounded=1;glass=0;dashed=1;sketch=0;gradientColor=none;" parent="zGb-HXnJVVAAqv_T0aW1-104" vertex="1">
          <mxGeometry x="276" y="38" width="68" height="68" as="geometry" />
        </mxCell>
        <mxCell id="zGb-HXnJVVAAqv_T0aW1-106" value="Application Gateway&lt;br&gt;WAF" style="aspect=fixed;html=1;points=[];align=center;image;fontSize=12;image=img/lib/azure2/networking/Web_Application_Firewall_Policies_WAF.svg;rounded=1;glass=0;dashed=1;sketch=0;gradientColor=none;" parent="zGb-HXnJVVAAqv_T0aW1-104" vertex="1">
          <mxGeometry x="150" y="38" width="68" height="68" as="geometry" />
        </mxCell>
        <mxCell id="zGb-HXnJVVAAqv_T0aW1-112" value="10.10.0.0/27" style="verticalLabelPosition=bottom;html=1;verticalAlign=top;align=center;strokeColor=none;fillColor=#00BEF2;shape=mxgraph.azure.virtual_network;pointerEvents=1;labelBackgroundColor=none;" parent="zGb-HXnJVVAAqv_T0aW1-104" vertex="1">
          <mxGeometry x="990" y="10" width="30" height="20" as="geometry" />
        </mxCell>
        <mxCell id="zGb-HXnJVVAAqv_T0aW1-113" value="stfunctions" style="aspect=fixed;html=1;points=[];align=center;image;fontSize=12;image=img/lib/azure2/storage/Storage_Accounts.svg;" parent="zGb-HXnJVVAAqv_T0aW1-104" vertex="1">
          <mxGeometry x="780" y="46" width="65" height="52" as="geometry" />
        </mxCell>
        <mxCell id="zGb-HXnJVVAAqv_T0aW1-128" value="Monitor" style="aspect=fixed;html=1;points=[];align=center;image;fontSize=12;image=img/lib/azure2/management_governance/Monitor.svg;rounded=1;glass=0;dashed=1;sketch=0;gradientColor=none;" parent="zGb-HXnJVVAAqv_T0aW1-104" vertex="1">
          <mxGeometry x="403" y="40" width="64" height="64" as="geometry" />
        </mxCell>
        <mxCell id="zGb-HXnJVVAAqv_T0aW1-153" value="" style="aspect=fixed;html=1;points=[];align=center;image;fontSize=12;image=img/lib/azure2/security/Azure_Sentinel.svg;rounded=1;glass=0;dashed=1;sketch=0;gradientColor=none;" parent="zGb-HXnJVVAAqv_T0aW1-104" vertex="1">
          <mxGeometry x="659" y="38" width="56.00000000000001" height="68" as="geometry" />
        </mxCell>
        <mxCell id="zGb-HXnJVVAAqv_T0aW1-154" value="" style="aspect=fixed;html=1;points=[];align=center;image;fontSize=12;image=img/lib/azure2/security/Azure_Defender.svg;rounded=1;glass=0;dashed=1;sketch=0;gradientColor=none;" parent="zGb-HXnJVVAAqv_T0aW1-104" vertex="1">
          <mxGeometry x="533" y="38" width="56.00000000000001" height="68" as="geometry" />
        </mxCell>
        <mxCell id="EbMunbrASVV2r2uE1-7z-13" value="Extract metadata from file name&lt;br&gt;content details, image type, file length, etc." style="text;html=1;strokeColor=#d6b656;fillColor=#fff2cc;align=center;verticalAlign=middle;whiteSpace=wrap;rounded=1;dashed=1;" parent="1" vertex="1">
          <mxGeometry x="238.22" y="780" width="220" height="90" as="geometry" />
        </mxCell>
        <mxCell id="zGb-HXnJVVAAqv_T0aW1-94" style="edgeStyle=orthogonalEdgeStyle;rounded=0;orthogonalLoop=1;jettySize=auto;html=1;dashed=1;endArrow=none;endFill=0;fillColor=#e1d5e7;strokeColor=#9673a6;" parent="1" source="EbMunbrASVV2r2uE1-7z-13" target="zGb-HXnJVVAAqv_T0aW1-42" edge="1">
          <mxGeometry relative="1" as="geometry" />
        </mxCell>
        <mxCell id="zGb-HXnJVVAAqv_T0aW1-75" value="Azure Function Event Grid Blob Trigger&lt;br&gt;(EventGridTrigger)" style="text;html=1;strokeColor=#d6b656;fillColor=#fff2cc;align=center;verticalAlign=middle;whiteSpace=wrap;rounded=1;dashed=1;" parent="1" vertex="1">
          <mxGeometry x="140" y="204" width="220" height="80" as="geometry" />
        </mxCell>
        <mxCell id="zGb-HXnJVVAAqv_T0aW1-114" style="edgeStyle=orthogonalEdgeStyle;rounded=0;orthogonalLoop=1;jettySize=auto;html=1;entryX=-0.012;entryY=0.669;entryDx=0;entryDy=0;entryPerimeter=0;dashed=1;endArrow=none;endFill=0;fillColor=#e1d5e7;strokeColor=#9673a6;" parent="1" source="zGb-HXnJVVAAqv_T0aW1-75" target="EbMunbrASVV2r2uE1-7z-3" edge="1">
          <mxGeometry relative="1" as="geometry">
            <Array as="points">
              <mxPoint x="390" y="244" />
              <mxPoint x="390" y="340" />
              <mxPoint x="500" y="340" />
            </Array>
          </mxGeometry>
        </mxCell>
        <mxCell id="zGb-HXnJVVAAqv_T0aW1-131" style="edgeStyle=orthogonalEdgeStyle;rounded=0;orthogonalLoop=1;jettySize=auto;html=1;dashed=1;endArrow=none;endFill=0;fillColor=#e1d5e7;strokeColor=#9673a6;" parent="1" source="zGb-HXnJVVAAqv_T0aW1-129" target="zGb-HXnJVVAAqv_T0aW1-100" edge="1">
          <mxGeometry relative="1" as="geometry" />
        </mxCell>
        <mxCell id="zGb-HXnJVVAAqv_T0aW1-129" value="Use Azure Storage object replication" style="text;html=1;strokeColor=#d6b656;fillColor=#fff2cc;align=center;verticalAlign=middle;whiteSpace=wrap;rounded=1;dashed=1;" parent="1" vertex="1">
          <mxGeometry x="1410" y="740" width="220" height="80" as="geometry" />
        </mxCell>
        <mxCell id="zGb-HXnJVVAAqv_T0aW1-140" value="" style="group" parent="1" vertex="1" connectable="0">
          <mxGeometry x="111" y="361" width="60" height="53.5" as="geometry" />
        </mxCell>
        <mxCell id="zGb-HXnJVVAAqv_T0aW1-137" value="" style="ellipse;shape=doubleEllipse;html=1;dashed=0;whitespace=wrap;aspect=fixed;rounded=1;glass=0;sketch=0;gradientColor=none;" parent="zGb-HXnJVVAAqv_T0aW1-140" vertex="1">
          <mxGeometry x="15.5" width="29" height="29" as="geometry" />
        </mxCell>
        <mxCell id="zGb-HXnJVVAAqv_T0aW1-139" value="Start" style="text;html=1;strokeColor=none;fillColor=none;align=center;verticalAlign=middle;whiteSpace=wrap;rounded=0;glass=0;dashed=1;sketch=0;" parent="zGb-HXnJVVAAqv_T0aW1-140" vertex="1">
          <mxGeometry y="23.5" width="60" height="30" as="geometry" />
        </mxCell>
        <mxCell id="zGb-HXnJVVAAqv_T0aW1-145" value="" style="group" parent="1" vertex="1" connectable="0">
          <mxGeometry x="1270" y="1044" width="60" height="55" as="geometry" />
        </mxCell>
        <mxCell id="zGb-HXnJVVAAqv_T0aW1-133" value="" style="ellipse;html=1;shape=endState;fillColor=#000000;strokeColor=#ff0000;rounded=1;glass=0;dashed=1;sketch=0;" parent="zGb-HXnJVVAAqv_T0aW1-145" vertex="1">
          <mxGeometry x="15" width="30" height="30" as="geometry" />
        </mxCell>
        <mxCell id="zGb-HXnJVVAAqv_T0aW1-144" value="End" style="text;html=1;strokeColor=none;fillColor=none;align=center;verticalAlign=middle;whiteSpace=wrap;rounded=0;glass=0;dashed=1;sketch=0;" parent="zGb-HXnJVVAAqv_T0aW1-145" vertex="1">
          <mxGeometry y="25" width="60" height="30" as="geometry" />
        </mxCell>
        <mxCell id="gfkck-QSRBC7-aFhQZBp-3" style="edgeStyle=orthogonalEdgeStyle;rounded=0;orthogonalLoop=1;jettySize=auto;html=1;endArrow=none;endFill=0;entryX=1.047;entryY=0.471;entryDx=0;entryDy=0;entryPerimeter=0;fillColor=#008a00;strokeColor=#005700;strokeWidth=2;" parent="1" target="zGb-HXnJVVAAqv_T0aW1-45" edge="1">
          <mxGeometry relative="1" as="geometry">
            <mxPoint x="530" y="410" as="sourcePoint" />
            <mxPoint x="599" y="779" as="targetPoint" />
            <Array as="points">
              <mxPoint x="530" y="444" />
            </Array>
          </mxGeometry>
        </mxCell>
        <mxCell id="RCE_GgjakJLuHdIpDTJi-29" value="Replica" style="edgeStyle=orthogonalEdgeStyle;rounded=0;orthogonalLoop=1;jettySize=auto;html=1;endArrow=classic;endFill=1;fillColor=#dae8fc;strokeColor=#6c8ebf;exitX=-0.032;exitY=0.522;exitDx=0;exitDy=0;exitPerimeter=0;entryX=0.485;entryY=-0.049;entryDx=0;entryDy=0;entryPerimeter=0;" parent="1" source="zGb-HXnJVVAAqv_T0aW1-100" target="zGb-HXnJVVAAqv_T0aW1-76" edge="1">
          <mxGeometry relative="1" as="geometry">
            <mxPoint x="1099.9999999999998" y="862" as="sourcePoint" />
            <mxPoint x="1135.7" y="1035.5" as="targetPoint" />
          </mxGeometry>
        </mxCell>
      </root>
    </mxGraphModel>
  </diagram>
</mxfile>
